<?xml version="1.0"?>
<svg xmlns="http://www.w3.org/2000/svg" height="512px" viewBox="0 0 480 480" width="512px" class=""><g><path d="m408 216h-136c-4.417969 0-8-3.582031-8-8v-136h-48v136c0 4.417969-3.582031 8-8 8h-136v48h136c4.417969 0 8 3.582031 8 8v136h48v-136c0-4.417969 3.582031-8 8-8h136zm0 0" data-original="#000000" class="active-path" data-old_color="#000000" fill="#AFAFAF"/><path d="m16 16h64v-16h-72c-4.417969 0-8 3.582031-8 8v72h16zm0 0" data-original="#000000" class="active-path" data-old_color="#000000" fill="#AFAFAF"/><path d="m472 0h-72v16h64v64h16v-72c0-4.417969-3.582031-8-8-8zm0 0" data-original="#000000" class="active-path" data-old_color="#000000" fill="#AFAFAF"/><path d="m16 400h-16v72c0 4.417969 3.582031 8 8 8h72v-16h-64zm0 0" data-original="#000000" class="active-path" data-old_color="#000000" fill="#AFAFAF"/><path d="m464 464h-64v16h72c4.417969 0 8-3.582031 8-8v-72h-16zm0 0" data-original="#000000" class="active-path" data-old_color="#000000" fill="#AFAFAF"/></g> </svg>
